{
  "accessors": [
    {
      "bufferView": 2,
      "componentType": 5126,
      "count": 9955,
      "max": [
        0.7011181712150574,
        0.1688700020313263,
        0.676586389541626
      ],
      "min": [
        -0.7153757214546204,
        -0.19074049592018127,
        0.0007109344005584717
      ],
      "type": "VEC3"
    },
    {
      "bufferView": 2,
      "byteOffset": 119460,
      "componentType": 5126,
      "count": 9955,
      "max": [
        0.9999131560325623,
        0.9997738003730774,
        0.9999451637268066
      ],
      "min": [
        -0.9999596476554871,
        -0.9997175335884094,
        -0.9999624490737915
      ],
      "type": "VEC3"
    },
    {
      "bufferView": 3,
      "componentType": 5126,
      "count": 9955,
      "max": [
        0.9999997615814209,
        0.9999775886535645,
        0.999997615814209,
        1.0
      ],
      "min": [
        -0.9999589323997498,
        -0.9996544122695923,
        -0.999790370464325,
        -1.0
      ],
      "type": "VEC4"
    },
    {
      "bufferView": 1,
      "componentType": 5126,
      "count": 9955,
      "max": [
        1.0,
        0.9999997019767761
      ],
      "min": [
        0.0,
        0.0
      ],
      "type": "VEC2"
    },
    {
      "bufferView": 1,
      "byteOffset": 79640,
      "componentType": 5126,
      "count": 9955,
      "max": [
        1.0,
        0.9999997019767761
      ],
      "min": [
        0.0,
        0.0
      ],
      "type": "VEC2"
    },
    {
      "bufferView": 1,
      "byteOffset": 159280,
      "componentType": 5126,
      "count": 9955,
      "max": [
        1.0,
        0.9999997019767761
      ],
      "min": [
        0.0,
        0.0
      ],
      "type": "VEC2"
    },
    {
      "bufferView": 0,
      "componentType": 5125,
      "count": 45540,
      "type": "SCALAR"
    }
  ],
  "asset": {
    "extras": {
      "author": "Sirolalo (https://sketchfab.com/Sirolalo)",
      "license": "CC-BY-4.0 (http://creativecommons.org/licenses/by/4.0/)",
      "source": "https://sketchfab.com/3d-models/draught-of-beer-a660804de7f64ce2ae99913a6b7c9bd1",
      "title": "Draught Of Beer"
    },
    "generator": "Sketchfab-14.64.0",
    "version": "2.0"
  },
  "bufferViews": [
    {
      "buffer": 0,
      "byteLength": 182160,
      "name": "floatBufferViews",
      "target": 34963
    },
    {
      "buffer": 0,
      "byteLength": 238920,
      "byteOffset": 182160,
      "byteStride": 8,
      "name": "floatBufferViews",
      "target": 34962
    },
    {
      "buffer": 0,
      "byteLength": 238920,
      "byteOffset": 421080,
      "byteStride": 12,
      "name": "floatBufferViews",
      "target": 34962
    },
    {
      "buffer": 0,
      "byteLength": 159280,
      "byteOffset": 660000,
      "byteStride": 16,
      "name": "floatBufferViews",
      "target": 34962
    }
  ],
  "buffers": [
    {
      "byteLength": 819280,
      "uri": "scene.bin"
    }
  ],
  "images": [
    {
      "uri": "textures/M_DraughtOfBeer_baseColor.png"
    },
    {
      "uri": "textures/M_DraughtOfBeer_metallicRoughness.png"
    },
    {
      "uri": "textures/M_DraughtOfBeer_normal.png"
    }
  ],
  "materials": [
    {
      "doubleSided": true,
      "name": "M_DraughtOfBeer",
      "normalTexture": {
        "index": 2
      },
      "pbrMetallicRoughness": {
        "baseColorTexture": {
          "index": 0
        },
        "metallicRoughnessTexture": {
          "index": 1
        }
      }
    }
  ],
  "meshes": [
    {
      "name": "A_DraughtOfBeer_M_DraughtOfBeer_0",
      "primitives": [
        {
          "attributes": {
            "NORMAL": 1,
            "POSITION": 0,
            "TANGENT": 2,
            "TEXCOORD_0": 3,
            "TEXCOORD_1": 4,
            "TEXCOORD_2": 5
          },
          "indices": 6,
          "material": 0,
          "mode": 4
        }
      ]
    }
  ],
  "nodes": [
    {
      "children": [
        1
      ],
      "matrix": [
        1.0,
        0.0,
        0.0,
        0.0,
        0.0,
        2.220446049250313e-16,
        -1.0,
        0.0,
        0.0,
        1.0,
        2.220446049250313e-16,
        0.0,
        0.0,
        0.0,
        0.0,
        1.0
      ],
      "name": "Sketchfab_model"
    },
    {
      "children": [
        2
      ],
      "matrix": [
        0.009999999776482582,
        0.0,
        0.0,
        0.0,
        0.0,
        0.0,
        0.009999999776482582,
        0.0,
        0.0,
        -0.009999999776482582,
        0.0,
        0.0,
        0.0,
        0.0,
        0.0,
        1.0
      ],
      "name": "634dff7034ef47a1ab919498f04ffd44.fbx"
    },
    {
      "children": [
        3
      ],
      "name": "RootNode"
    },
    {
      "children": [
        4
      ],
      "matrix": [
        100.0,
        0.0,
        0.0,
        0.0,
        0.0,
        -1.629206793918314e-05,
        -99.99999999999868,
        0.0,
        0.0,
        99.99999999999868,
        -1.629206793918314e-05,
        0.0,
        0.0,
        0.0,
        0.0,
        1.0
      ],
      "name": "A_DraughtOfBeer"
    },
    {
      "mesh": 0,
      "name": "A_DraughtOfBeer_M_DraughtOfBeer_0"
    }
  ],
  "samplers": [
    {
      "magFilter": 9729,
      "minFilter": 9987,
      "wrapS": 10497,
      "wrapT": 10497
    }
  ],
  "scene": 0,
  "scenes": [
    {
      "name": "Sketchfab_Scene",
      "nodes": [
        0
      ]
    }
  ],
  "textures": [
    {
      "sampler": 0,
      "source": 0
    },
    {
      "sampler": 0,
      "source": 1
    },
    {
      "sampler": 0,
      "source": 2
    }
  ]
}
