{
  "accessors": [
    {
      "bufferView": 2,
      "componentType": 5126,
      "count": 768,
      "max": [
        1.0,
        0.6009847521781921,
        1.0000001192092896
      ],
      "min": [
        -1.000000238418579,
        -0.9927252531051636,
        -1.0000004768371582
      ],
      "type": "VEC3"
    },
    {
      "bufferView": 2,
      "byteOffset": 9216,
      "componentType": 5126,
      "count": 768,
      "max": [
        0.9999988079071045,
        0.9762166738510132,
        0.9999988079071045
      ],
      "min": [
        -0.9999988079071045,
        -1.0,
        -0.9999988079071045
      ],
      "type": "VEC3"
    },
    {
      "bufferView": 3,
      "componentType": 5126,
      "count": 768,
      "max": [
        0.9999980926513672,
        0.9808114767074585,
        0.9999938607215881,
        1.0
      ],
      "min": [
        -0.9999619722366333,
        -0.9815656542778015,
        -0.9999780058860779,
        1.0
      ],
      "type": "VEC4"
    },
    {
      "bufferView": 1,
      "componentType": 5126,
      "count": 768,
      "max": [
        0.8094381093978882,
        0.9539802074432373
      ],
      "min": [
        0.10290101170539856,
        0.06573496758937836
      ],
      "type": "VEC2"
    },
    {
      "bufferView": 1,
      "byteOffset": 6144,
      "componentType": 5126,
      "count": 768,
      "max": [
        0.8094381093978882,
        0.9539802074432373
      ],
      "min": [
        0.10290101170539856,
        0.06573496758937836
      ],
      "type": "VEC2"
    },
    {
      "bufferView": 1,
      "byteOffset": 12288,
      "componentType": 5126,
      "count": 768,
      "max": [
        0.8094381093978882,
        0.9539802074432373
      ],
      "min": [
        0.10290101170539856,
        0.06573496758937836
      ],
      "type": "VEC2"
    },
    {
      "bufferView": 1,
      "byteOffset": 18432,
      "componentType": 5126,
      "count": 768,
      "max": [
        0.8094381093978882,
        0.9539802074432373
      ],
      "min": [
        0.10290101170539856,
        0.06573496758937836
      ],
      "type": "VEC2"
    },
    {
      "bufferView": 1,
      "byteOffset": 24576,
      "componentType": 5126,
      "count": 768,
      "max": [
        0.8094381093978882,
        0.9539802074432373
      ],
      "min": [
        0.10290101170539856,
        0.06573496758937836
      ],
      "type": "VEC2"
    },
    {
      "bufferView": 1,
      "byteOffset": 30720,
      "componentType": 5126,
      "count": 768,
      "max": [
        0.8094381093978882,
        0.9539802074432373
      ],
      "min": [
        0.10290101170539856,
        0.06573496758937836
      ],
      "type": "VEC2"
    },
    {
      "bufferView": 1,
      "byteOffset": 36864,
      "componentType": 5126,
      "count": 768,
      "max": [
        0.8094381093978882,
        0.9539802074432373
      ],
      "min": [
        0.10290101170539856,
        0.06573496758937836
      ],
      "type": "VEC2"
    },
    {
      "bufferView": 1,
      "byteOffset": 43008,
      "componentType": 5126,
      "count": 768,
      "max": [
        0.8094381093978882,
        0.9539802074432373
      ],
      "min": [
        0.10290101170539856,
        0.06573496758937836
      ],
      "type": "VEC2"
    },
    {
      "bufferView": 1,
      "byteOffset": 49152,
      "componentType": 5126,
      "count": 768,
      "max": [
        0.8094381093978882,
        0.9539802074432373
      ],
      "min": [
        0.10290101170539856,
        0.06573496758937836
      ],
      "type": "VEC2"
    },
    {
      "bufferView": 1,
      "byteOffset": 55296,
      "componentType": 5126,
      "count": 768,
      "max": [
        0.8094381093978882,
        0.9539802074432373
      ],
      "min": [
        0.10290101170539856,
        0.06573496758937836
      ],
      "type": "VEC2"
    },
    {
      "bufferView": 0,
      "componentType": 5125,
      "count": 4020,
      "type": "SCALAR"
    },
    {
      "bufferView": 2,
      "byteOffset": 18432,
      "componentType": 5126,
      "count": 513,
      "max": [
        0.35852473974227905,
        0.9780560731887817,
        0.3585246503353119
      ],
      "min": [
        -0.35852473974227905,
        0.6009847521781921,
        -0.3585248291492462
      ],
      "type": "VEC3"
    },
    {
      "bufferView": 2,
      "byteOffset": 24588,
      "componentType": 5126,
      "count": 513,
      "max": [
        1.0,
        1.0,
        1.0
      ],
      "min": [
        -1.0,
        -0.943953275680542,
        -1.0
      ],
      "type": "VEC3"
    },
    {
      "bufferView": 3,
      "byteOffset": 12288,
      "componentType": 5126,
      "count": 513,
      "max": [
        0.9999995231628418,
        0.9999759793281555,
        0.9999986290931702,
        1.0
      ],
      "min": [
        -0.9988017082214355,
        -0.9999759793281555,
        -0.999720573425293,
        1.0
      ],
      "type": "VEC4"
    },
    {
      "bufferView": 1,
      "byteOffset": 61440,
      "componentType": 5126,
      "count": 513,
      "max": [
        0.9546154141426086,
        0.9680115580558777
      ],
      "min": [
        0.10599946975708008,
        0.7914674878120422
      ],
      "type": "VEC2"
    },
    {
      "bufferView": 1,
      "byteOffset": 65544,
      "componentType": 5126,
      "count": 513,
      "max": [
        0.9546154141426086,
        0.9680115580558777
      ],
      "min": [
        0.10599946975708008,
        0.7914674878120422
      ],
      "type": "VEC2"
    },
    {
      "bufferView": 1,
      "byteOffset": 69648,
      "componentType": 5126,
      "count": 513,
      "max": [
        0.9546154141426086,
        0.9680115580558777
      ],
      "min": [
        0.10599946975708008,
        0.7914674878120422
      ],
      "type": "VEC2"
    },
    {
      "bufferView": 1,
      "byteOffset": 73752,
      "componentType": 5126,
      "count": 513,
      "max": [
        0.9546154141426086,
        0.9680115580558777
      ],
      "min": [
        0.10599946975708008,
        0.7914674878120422
      ],
      "type": "VEC2"
    },
    {
      "bufferView": 1,
      "byteOffset": 77856,
      "componentType": 5126,
      "count": 513,
      "max": [
        0.9546154141426086,
        0.9680115580558777
      ],
      "min": [
        0.10599946975708008,
        0.7914674878120422
      ],
      "type": "VEC2"
    },
    {
      "bufferView": 1,
      "byteOffset": 81960,
      "componentType": 5126,
      "count": 513,
      "max": [
        0.9546154141426086,
        0.9680115580558777
      ],
      "min": [
        0.10599946975708008,
        0.7914674878120422
      ],
      "type": "VEC2"
    },
    {
      "bufferView": 1,
      "byteOffset": 86064,
      "componentType": 5126,
      "count": 513,
      "max": [
        0.9546154141426086,
        0.9680115580558777
      ],
      "min": [
        0.10599946975708008,
        0.7914674878120422
      ],
      "type": "VEC2"
    },
    {
      "bufferView": 1,
      "byteOffset": 90168,
      "componentType": 5126,
      "count": 513,
      "max": [
        0.9546154141426086,
        0.9680115580558777
      ],
      "min": [
        0.10599946975708008,
        0.7914674878120422
      ],
      "type": "VEC2"
    },
    {
      "bufferView": 1,
      "byteOffset": 94272,
      "componentType": 5126,
      "count": 513,
      "max": [
        0.9546154141426086,
        0.9680115580558777
      ],
      "min": [
        0.10599946975708008,
        0.7914674878120422
      ],
      "type": "VEC2"
    },
    {
      "bufferView": 1,
      "byteOffset": 98376,
      "componentType": 5126,
      "count": 513,
      "max": [
        0.9546154141426086,
        0.9680115580558777
      ],
      "min": [
        0.10599946975708008,
        0.7914674878120422
      ],
      "type": "VEC2"
    },
    {
      "bufferView": 0,
      "byteOffset": 16080,
      "componentType": 5125,
      "count": 2700,
      "type": "SCALAR"
    }
  ],
  "asset": {
    "extras": {
      "author": "sdallas (https://sketchfab.com/sdallas)",
      "license": "CC-BY-4.0 (http://creativecommons.org/licenses/by/4.0/)",
      "source": "https://sketchfab.com/3d-models/fake-vodka-bottle-bd7d993037a9473e99d380944c7bf5a1",
      "title": "fake vodka bottle"
    },
    "generator": "Sketchfab-13.17.0",
    "version": "2.0"
  },
  "bufferViews": [
    {
      "buffer": 0,
      "byteLength": 26880,
      "name": "floatBufferViews",
      "target": 34963
    },
    {
      "buffer": 0,
      "byteLength": 102480,
      "byteOffset": 26880,
      "byteStride": 8,
      "name": "floatBufferViews",
      "target": 34962
    },
    {
      "buffer": 0,
      "byteLength": 30744,
      "byteOffset": 129360,
      "byteStride": 12,
      "name": "floatBufferViews",
      "target": 34962
    },
    {
      "buffer": 0,
      "byteLength": 20496,
      "byteOffset": 160104,
      "byteStride": 16,
      "name": "floatBufferViews",
      "target": 34962
    }
  ],
  "buffers": [
    {
      "byteLength": 180600,
      "uri": "scene.bin"
    }
  ],
  "images": [
    {
      "uri": "textures/Bottleclear_baseColor.png"
    },
    {
      "uri": "textures/Bottleclear_metallicRoughness.png"
    },
    {
      "uri": "textures/Bottleclear_normal.png"
    },
    {
      "uri": "textures/Bottlecap_metallicRoughness.png"
    },
    {
      "uri": "textures/Bottlecap_normal.png"
    }
  ],
  "materials": [
    {
      "alphaMode": "BLEND",
      "doubleSided": true,
      "name": "Bottleclear",
      "normalTexture": {
        "index": 2
      },
      "pbrMetallicRoughness": {
        "baseColorTexture": {
          "index": 0
        },
        "metallicRoughnessTexture": {
          "index": 1
        }
      }
    },
    {
      "doubleSided": true,
      "name": "Bottlecap",
      "normalTexture": {
        "index": 4
      },
      "pbrMetallicRoughness": {
        "baseColorFactor": [
          0.5,
          0.006500009999999997,
          0.006500009999999997,
          1.0
        ],
        "metallicRoughnessTexture": {
          "index": 3
        }
      }
    }
  ],
  "meshes": [
    {
      "name": "pCylinder1_Bottleclear_0",
      "primitives": [
        {
          "attributes": {
            "NORMAL": 1,
            "POSITION": 0,
            "TANGENT": 2,
            "TEXCOORD_0": 3,
            "TEXCOORD_1": 4,
            "TEXCOORD_2": 5,
            "TEXCOORD_3": 6,
            "TEXCOORD_4": 7,
            "TEXCOORD_5": 8,
            "TEXCOORD_6": 9,
            "TEXCOORD_7": 10,
            "TEXCOORD_8": 11,
            "TEXCOORD_9": 12
          },
          "indices": 13,
          "material": 0,
          "mode": 4
        }
      ]
    },
    {
      "name": "pCylinder1_Bottlecap_0",
      "primitives": [
        {
          "attributes": {
            "NORMAL": 15,
            "POSITION": 14,
            "TANGENT": 16,
            "TEXCOORD_0": 17,
            "TEXCOORD_1": 18,
            "TEXCOORD_2": 19,
            "TEXCOORD_3": 20,
            "TEXCOORD_4": 21,
            "TEXCOORD_5": 22,
            "TEXCOORD_6": 23,
            "TEXCOORD_7": 24,
            "TEXCOORD_8": 25,
            "TEXCOORD_9": 26
          },
          "indices": 27,
          "material": 1,
          "mode": 4
        }
      ]
    }
  ],
  "nodes": [
    {
      "children": [
        1
      ],
      "matrix": [
        1.0,
        0.0,
        0.0,
        0.0,
        0.0,
        2.220446049250313e-16,
        -1.0,
        0.0,
        0.0,
        1.0,
        2.220446049250313e-16,
        0.0,
        0.0,
        0.0,
        0.0,
        1.0
      ],
      "name": "Sketchfab_model"
    },
    {
      "children": [
        2
      ],
      "matrix": [
        0.009999999776482582,
        0.0,
        0.0,
        0.0,
        0.0,
        0.0,
        0.009999999776482582,
        0.0,
        0.0,
        -0.009999999776482582,
        0.0,
        0.0,
        0.0,
        0.0,
        0.0,
        1.0
      ],
      "name": "bottlesp.fbx"
    },
    {
      "children": [
        3
      ],
      "name": "RootNode"
    },
    {
      "children": [
        4,
        5
      ],
      "matrix": [
        1.0,
        0.0,
        0.0,
        0.0,
        0.0,
        3.803990602493286,
        0.0,
        0.0,
        0.0,
        0.0,
        1.0,
        0.0,
        0.0,
        3.7785701751708984,
        0.0,
        1.0
      ],
      "name": "pCylinder1"
    },
    {
      "mesh": 0,
      "name": "pCylinder1_Bottleclear_0"
    },
    {
      "children": [
        6
      ],
      "name": "pCylinder1"
    },
    {
      "mesh": 1,
      "name": "pCylinder1_Bottlecap_0"
    }
  ],
  "samplers": [
    {
      "magFilter": 9729,
      "minFilter": 9987,
      "wrapS": 10497,
      "wrapT": 10497
    }
  ],
  "scene": 0,
  "scenes": [
    {
      "name": "Sketchfab_Scene",
      "nodes": [
        0
      ]
    }
  ],
  "textures": [
    {
      "sampler": 0,
      "source": 0
    },
    {
      "sampler": 0,
      "source": 1
    },
    {
      "sampler": 0,
      "source": 2
    },
    {
      "sampler": 0,
      "source": 3
    },
    {
      "sampler": 0,
      "source": 4
    }
  ]
}
